<svg xmlns="http://www.w3.org/2000/svg" xmlns:xlink="http://www.w3.org/1999/xlink" viewBox="0 0 584.3583 253.9527">
  <defs>
    <linearGradient id="linear-gradient" x1="82.6634" y1="144.7779" x2="493.311" y2="144.7779" gradientUnits="userSpaceOnUse">
      <stop offset="0" stop-color="#d71920"/>
      <stop offset="1" stop-color="#f04e37"/>
    </linearGradient>
    <linearGradient id="linear-gradient-2" x1="82.6634" y1="145.1629" x2="493.311" y2="145.1629" xlink:href="#linear-gradient"/>
    <linearGradient id="linear-gradient-3" x1="82.6634" y1="114.9075" x2="493.311" y2="114.9075" xlink:href="#linear-gradient"/>
    <linearGradient id="linear-gradient-9" x1="82.6634" y1="145.1245" x2="493.311" y2="145.1245" xlink:href="#linear-gradient"/>
    <linearGradient id="linear-gradient-11" x1="82.6634" y1="127.3975" x2="493.311" y2="127.3975" xlink:href="#linear-gradient"/>
    <linearGradient id="linear-gradient-12" x1="82.6634" y1="128.7649" x2="493.311" y2="128.7649" xlink:href="#linear-gradient"/>
    <linearGradient id="linear-gradient-13" x1="82.6634" y1="152.977" x2="493.311" y2="152.977" xlink:href="#linear-gradient"/>
    <linearGradient id="linear-gradient-14" x1="82.6634" y1="136.5014" x2="493.311" y2="136.5014" xlink:href="#linear-gradient"/>
  </defs>
  <title>renaissance-logo-full-color-rgb</title>
  <g id="full-rgb">
    <path id="fullLogo" d="M219.986,176.454v10.1308h-1.5049l-3.69-4.9785c-.8975-1.2306-1.7649-2.4887-1.7806-2.4887h-.0143c-.0144,0,.03,1.36.03,3.1693v4.2979h-1.6068V176.454h1.5049l3.7192,4.9929c.7237.985,1.7362,2.4024,1.7518,2.4024h.0144c.0144,0-.03-1.4906-.03-3.0817V176.454Z"/>
    <path id="fullLogo-2" data-name="fullLogo" d="M239.5722,185.08v1.5049h-7.0478V176.454h6.96v1.5049h-5.3535v2.6349H238.4v1.4174h-4.2692V185.08Z"/>
    <path id="fullLogo-3" data-name="fullLogo" d="M258.91,176.454v1.5049H255.626v8.6259h-1.5924v-8.6259h-3.2712V176.454Z"/>
    <path id="fullLogo-4" data-name="fullLogo" d="M283.808,176.454l-3.3142,10.1308H279.032l-1.6212-5.1092c-.405-1.2881-.5069-1.8811-.5212-1.8811h-.0144c-.0144,0-.115.6087-.5212,1.8811l-1.62,5.1092h-1.4618l-3.3-10.1308h1.6931l1.9242,6.1516c.2757.8962.4207,1.5337.435,1.5337h.0144c.0144,0,.145-.6375.4625-1.5337l1.6643-4.921h1.4474l1.6643,4.921c.3187.8962.4494,1.5337.4638,1.5337h.0143c.0144,0,.1594-.6375.4194-1.5337l1.9386-6.1516Z"/>
    <path id="fullLogo-5" data-name="fullLogo" d="M299.4869,176.2515a5.2679,5.2679,0,1,1-5.2541,5.2685A5.1784,5.1784,0,0,1,299.4869,176.2515Zm0,8.959a3.6915,3.6915,0,1,0-3.6042-3.69A3.5124,3.5124,0,0,0,299.4869,185.2105Z"/>
    <path id="fullLogo-6" data-name="fullLogo" d="M322.2424,186.5848l-2.1425-3.633a2.2375,2.2375,0,0,1-.3174.0144h-1.7074v3.6186h-1.6068V176.454h3.3142c2.4311,0,3.8929,1.288,3.8929,3.2855a2.944,2.944,0,0,1-2.0261,2.9236l2.4024,3.9217Zm-2.2718-5.036a1.7958,1.7958,0,0,0,2.0405-1.8093c0-1.0425-.7237-1.7806-2.0405-1.7806h-1.8955v3.59Z"/>
    <path id="fullLogo-7" data-name="fullLogo" d="M342.4491,186.5848l-3.5886-4.8767-1.3743,1.3887v3.488h-1.6068V176.454h1.6068v2.3593c0,1.6355-.0444,2.3449-.03,2.3449h.0144c.0156,0,.7093-.7381,1.578-1.6068l3.1118-3.0974h1.953l-4.196,4.1973,4.4142,5.9335Z"/>
    <path id="fullLogo-8" data-name="fullLogo" d="M375.44,186.5848l-2.1424-3.633a2.2389,2.2389,0,0,1-.3174.0144h-1.7075v3.6186h-1.6068V176.454H372.98c2.4311,0,3.8929,1.288,3.8929,3.2855a2.944,2.944,0,0,1-2.0262,2.9236l2.4024,3.9217Zm-2.2717-5.036a1.7958,1.7958,0,0,0,2.0405-1.8093c0-1.0425-.7237-1.7806-2.0405-1.7806h-1.8956v3.59Z"/>
    <path id="fullLogo-9" data-name="fullLogo" d="M396.1247,185.08v1.5049h-7.0478V176.454h6.96v1.5049h-5.3535v2.6349h4.2692v1.4174h-4.2692V185.08Z"/>
    <path id="fullLogo-10" data-name="fullLogo" d="M408.33,186.5848V176.454h1.6068v10.1308Z"/>
    <path id="fullLogo-11" data-name="fullLogo" d="M431.04,176.454v10.1308h-1.505l-3.69-4.9785c-.8975-1.2306-1.7649-2.4887-1.7806-2.4887h-.0143c-.0144,0,.03,1.36.03,3.1693v4.2979h-1.6068V176.454h1.5049l3.7192,4.9929c.7237.985,1.7362,2.4024,1.7518,2.4024h.0144c.0144,0-.03-1.4906-.03-3.0817V176.454Z"/>
    <path id="fullLogo-12" data-name="fullLogo" d="M452.3176,176.454l-4.1816,10.1308h-1.6787l-4.183-10.1308h1.7506l2.6924,6.7c.3187.8543.5643,1.6355.5787,1.6355h.0143c.0144,0,.2456-.7812.5788-1.6355l2.6924-6.7Z"/>
    <path id="fullLogo-13" data-name="fullLogo" d="M470.6014,185.08v1.5049h-7.0478V176.454h6.96v1.5049H465.16v2.6349H469.43v1.4174H465.16V185.08Z"/>
    <path id="fullLogo-14" data-name="fullLogo" d="M491.3738,176.454v10.1308h-1.505l-3.69-4.9785c-.8975-1.2306-1.7649-2.4887-1.7806-2.4887h-.0144c-.0143,0,.03,1.36.03,3.1693v4.2979h-1.6068V176.454h1.5049l3.7192,4.9929c.7237.985,1.7361,2.4024,1.7518,2.4024h.0144c.0144,0-.03-1.4906-.03-3.0817V176.454Z"/>
    <path id="fullLogo-15" data-name="fullLogo" d="M511.0449,176.454v1.5049h-3.2842v8.6259h-1.5925v-8.6259h-3.2711V176.454Z"/>
    <path id="fullLogo-16" data-name="fullLogo" d="M223.5914,124.4541a22.1393,22.1393,0,0,0-13.01,4.311h-.3855V125.224h-9.7v39.8778h10.0859V134.6157a23.1155,23.1155,0,0,1,8.16-2.0012c4.9272,0,6.3122,1.5388,6.3122,5.3116v27.1757h10.1625V135.5394C235.2161,127.61,231.2129,124.4541,223.5914,124.4541Z" style="fill: url(#linear-gradient)"/>
    <path id="fullLogo-17" data-name="fullLogo" d="M258.853,124.5309a41.0953,41.0953,0,0,0-13.9342,2.155v7.083a37.1632,37.1632,0,0,1,10.0847-1.2321c6.5437,0,8.7,1.1552,8.7,6.0824v2.6942l-8.7767,1.0775c-8.0835,1.1555-13.3183,4.5425-13.3183,12.0868,0,7.7,5.1576,11.3172,12.4715,11.3172,5.0038,0,8.3911-1.6165,10.1617-3.9264h.4624l.77,3.2333h8.2374V136.54C273.7112,127.9182,268.245,124.5309,258.853,124.5309Zm4.85,32.2567c-1.2324,1.2323-3.9266,2.156-6.4668,2.156-3.31,0-5.6972-1.54-5.6972-5.2358s1.8474-5.0807,5.62-5.4651l6.544-.6931Z" style="fill: url(#linear-gradient-2)"/>
    <rect id="fullLogo-18" data-name="fullLogo" x="282.6448" y="110.5964" width="10.3154" height="8.622" style="fill: url(#linear-gradient-3)"/>
    <rect id="fullLogo-19" data-name="fullLogo" x="282.7217" y="125.224" width="10.1616" height="39.8778" style="fill: url(#linear-gradient-2)"/>
    <path id="fullLogo-20" data-name="fullLogo" d="M318.29,141.16l-3.7717-.77c-3.6957-.693-5.1588-1.6167-5.1588-4.2341,0-2.7711,2.2327-4.1573,6.7755-4.1573a32.5811,32.5811,0,0,1,10.7779,1.9246v-7.237a27.8648,27.8648,0,0,0-11.78-2.155c-10.3154,0-15.2423,4.85-15.2423,12.3178,0,7.3905,4.0032,10.4691,10.2385,11.7015l3.6957.8468c4.08.77,5.5434,1.9243,5.5434,4.5426,0,2.7711-2.1561,4.311-7.5455,4.311a26.9107,26.9107,0,0,1-11.7784-2.4636v7.2367c3.0795,1.6937,8.0067,2.7712,13.2412,2.7712,10.3165,0,15.86-4.3111,15.86-12.7022C329.1454,146.1635,326.1425,142.7765,318.29,141.16Z" style="fill: url(#linear-gradient-2)"/>
    <path id="fullLogo-21" data-name="fullLogo" d="M352.2418,141.16l-3.7717-.77c-3.6957-.693-5.1587-1.6167-5.1587-4.2341,0-2.7711,2.233-4.1573,6.7755-4.1573a32.58,32.58,0,0,1,10.7778,1.9246v-7.237a27.8623,27.8623,0,0,0-11.7792-2.155c-10.3157,0-15.2426,4.85-15.2426,12.3178,0,7.3905,4.0032,10.4691,10.2385,11.7015l3.6957.8468c4.08.77,5.5434,1.9243,5.5434,4.5426,0,2.7711-2.1561,4.311-7.5455,4.311a26.9107,26.9107,0,0,1-11.7784-2.4636v7.2367c3.0795,1.6937,8.0067,2.7712,13.2415,2.7712,10.3162,0,15.86-4.3111,15.86-12.7022C363.0977,146.1635,360.0948,142.7765,352.2418,141.16Z" style="fill: url(#linear-gradient-2)"/>
    <path id="fullLogo-22" data-name="fullLogo" d="M384.8872,124.5309a41.0959,41.0959,0,0,0-13.9345,2.155v7.083a37.1664,37.1664,0,0,1,10.0847-1.2321c6.5437,0,8.7,1.1552,8.7,6.0824v2.6942l-8.7766,1.0775c-8.0836,1.1555-13.3184,4.5425-13.3184,12.0868,0,7.7,5.1579,11.3172,12.4715,11.3172,5.0041,0,8.3911-1.6165,10.1617-3.9264h.4624l.77,3.2333h8.2373V136.54C399.7451,127.9182,394.2789,124.5309,384.8872,124.5309Zm4.85,32.2567c-1.2324,1.2323-3.9263,2.156-6.4668,2.156-3.31,0-5.6971-1.54-5.6971-5.2358s1.8474-5.0807,5.62-5.4651l6.5437-.6931Z" style="fill: url(#linear-gradient-2)"/>
    <path id="fullLogo-23" data-name="fullLogo" d="M431.6205,124.4541a22.14,22.14,0,0,0-13.0108,4.311h-.3856V125.224h-9.7v39.8778H418.61V134.6157a23.1171,23.1171,0,0,1,8.1605-2.0012c4.9272,0,6.3122,1.5388,6.3122,5.3116v27.1757h10.1627V135.5394C443.2451,127.61,439.2416,124.4541,431.6205,124.4541Z" style="fill: url(#linear-gradient)"/>
    <path id="fullLogo-24" data-name="fullLogo" d="M460.2612,145.47v-1.54c0-7.7749,3.9254-11.4706,10.3923-11.4706a22.7089,22.7089,0,0,1,9.9312,2.002v-7.6211c-2.5407-1.463-5.6971-2.3867-10.8547-2.3867-11.7784,0-19.9391,6.6977-19.9391,20.4013V146.01c0,13.0877,7.0832,19.7852,19.2458,19.7852a22.1476,22.1476,0,0,0,11.9333-3.0027v-7.3136a21.72,21.72,0,0,1-10.0079,2.3864C463.6485,157.865,460.2612,154.2471,460.2612,145.47Z" style="fill: url(#linear-gradient-9)"/>
    <path id="fullLogo-25" data-name="fullLogo" d="M521.3134,144.1623c0-12.78-5.0818-19.6314-17.1678-19.6314-10.7778,0-18.7076,6.9284-18.7076,20.093v1c0,12.78,6.6974,20.1707,20.0926,20.1707,6.9292,0,11.6258-1.8475,14.3966-3.6957v-6.6206a29.22,29.22,0,0,1-12.0868,2.6182c-7.237,0-11.394-2.5405-12.087-10.24h25.56Zm-25.56-2.8489c.5393-7.5445,4.5425-9.6234,8.16-9.6234,4.9269,0,7.4677,2.6182,7.4677,9.6234Z" style="fill: url(#linear-gradient-2)"/>
    <rect id="fullLogo-26" data-name="fullLogo" width="584.3583" height="253.9527" style="fill: none"/>
    <path id="logoMark_CompoundPathItem_" data-name="logoMark &lt;CompoundPathItem&gt;" d="M63.1448,191.3419H191.0339V162.2166c-2.7927,1.808-7.4227,3.5783-14.2043,3.5783-13.3952,0-20.0929-7.3906-20.0929-20.1707v-1.0006c0-13.1646,7.93-20.0927,18.7076-20.0927,8.2757,0,13.2642,3.2152,15.59,9.3431V63.4531H63.1448Zm50.04-79.0515h18.9386c12.4712,0,19.0149,5.1572,19.0149,15.7044,0,7.3143-3.6188,11.3943-9.3926,13.5493v.3855l13.0874,23.1722H142.285l-10.47-20.7854h-7.698v20.7854H113.1851Z" style="fill: url(#linear-gradient-11)"/>
    <path id="logoMark_PathItem_" data-name="logoMark &lt;PathItem&gt;" d="M139.8217,128.5341c0-5.6968-2.6173-8.16-9.0844-8.16H124.04v16.7825h6.7743C137.2812,137.1562,139.8217,134.3082,139.8217,128.5341Z" style="fill: url(#linear-gradient-12)"/>
    <path id="logoMark_PathItem_2" data-name="logoMark &lt;PathItem&gt;" d="M179.14,158.0968a29.0862,29.0862,0,0,0,11.8944-2.539v-7.7007H167.0524C167.7454,155.5563,171.9024,158.0968,179.14,158.0968Z" style="fill: url(#linear-gradient-13)"/>
    <path id="logoMark_PathItem_3" data-name="logoMark &lt;PathItem&gt;" d="M175.2128,131.69c-3.6179,0-7.6211,2.0789-8.16,9.6235h15.629C182.6814,134.3082,180.14,131.69,175.2128,131.69Z" style="fill: url(#linear-gradient-14)"/>
  </g>
</svg>
